<svg xmlns="http://www.w3.org/2000/svg" width="673.774" height="504.414" viewBox="0 0 673.774 504.414">
  <g id="Illustration" transform="translate(-48.688 0.002)">
    <path id="Path_1" data-name="Path 1" d="M354.117,211.05H308.443a16.576,16.576,0,0,0-16.561,16.561V277.13c-.584-.035-1.168-.087-1.743-.157a58.4,58.4,0,1,1,63.718-67.666C353.952,209.882,354.039,210.466,354.117,211.05Z" transform="translate(-189.162 -160.495)" fill="#ffeef0"/>
    <path id="Path_2" data-name="Path 2" d="M901.018,216.5H316.143a18.325,18.325,0,0,0-18.3,18.3V543.363a18.325,18.325,0,0,0,18.3,18.3H901.018a18.325,18.325,0,0,0,18.3-18.3V234.8A18.325,18.325,0,0,0,901.018,216.5ZM917.58,543.363a16.576,16.576,0,0,1-16.561,16.561H316.143a16.576,16.576,0,0,1-16.561-16.561V234.8a16.576,16.576,0,0,1,16.561-16.561H901.018A16.576,16.576,0,0,1,917.58,234.8Z" transform="translate(-196.862 -167.683)" fill="#3f3d56"/>
    <path id="Path_3" data-name="Path 3" d="M879.057,273.608H351.71a.872.872,0,0,1,0-1.743H879.057a.872.872,0,1,1,0,1.743Z" transform="translate(-203.664 -174.79)" fill="#3f3d56"/>
    <path id="Path_4" data-name="Path 4" d="M522.71,527.011a.872.872,0,0,1-.872-.872V239.367a.872.872,0,0,1,1.743,0V526.139a.872.872,0,0,1-.872.872Z" transform="translate(-225.612 -170.507)" fill="#3f3d56"/>
    <path id="Path_5" data-name="Path 5" d="M673.71,527.011a.872.872,0,0,1-.872-.872V239.367a.872.872,0,1,1,1.743,0V526.139A.872.872,0,0,1,673.71,527.011Z" transform="translate(-244.994 -170.507)" fill="#3f3d56"/>
    <path id="Path_6" data-name="Path 6" d="M824.71,527.011a.872.872,0,0,1-.872-.872V239.367a.872.872,0,0,1,1.743,0V526.139A.872.872,0,0,1,824.71,527.011Z" transform="translate(-264.375 -170.507)" fill="#3f3d56"/>
    <path id="Path_7" data-name="Path 7" d="M420.486,370.393h-31.85a3.927,3.927,0,0,1-3.922-3.922V328.885a3.927,3.927,0,0,1,3.922-3.922h31.85a3.927,3.927,0,0,1,3.923,3.922v37.585a3.927,3.927,0,0,1-3.922,3.922Z" transform="translate(-208.012 -181.605)" fill="#6c63ff"/>
    <path id="Path_8" data-name="Path 8" d="M472.486,493.393h-31.85a3.927,3.927,0,0,1-3.922-3.922V451.885a3.927,3.927,0,0,1,3.922-3.922h31.85a3.927,3.927,0,0,1,3.922,3.922v37.585A3.927,3.927,0,0,1,472.486,493.393Z" transform="translate(-214.687 -197.393)" fill="#6c63ff"/>
    <path id="Path_9" data-name="Path 9" d="M590.486,396.393h-31.85a3.927,3.927,0,0,1-3.922-3.922V354.885a3.927,3.927,0,0,1,3.922-3.922h31.85a3.927,3.927,0,0,1,3.922,3.922v37.585a3.927,3.927,0,0,1-3.922,3.922Z" transform="translate(-229.832 -184.943)" fill="#6c63ff"/>
    <path id="Path_10" data-name="Path 10" d="M743.486,349.393h-31.85a3.927,3.927,0,0,1-3.922-3.922V307.885a3.927,3.927,0,0,1,3.922-3.922h31.85a3.927,3.927,0,0,1,3.922,3.922v37.585A3.927,3.927,0,0,1,743.486,349.393Z" transform="translate(-249.47 -178.91)" fill="#6c63ff"/>
    <path id="Path_11" data-name="Path 11" d="M884.486,349.393h-31.85a3.927,3.927,0,0,1-3.923-3.922V307.885a3.927,3.927,0,0,1,3.923-3.922h31.85a3.927,3.927,0,0,1,3.922,3.922v37.585A3.927,3.927,0,0,1,884.486,349.393Z" transform="translate(-267.568 -178.91)" fill="#6c63ff"/>
    <path id="Path_12" data-name="Path 12" d="M949.486,361.393h-31.85a3.927,3.927,0,0,1-3.922-3.922V319.885a3.927,3.927,0,0,1,3.922-3.922h31.85a3.927,3.927,0,0,1,3.922,3.922v37.585A3.927,3.927,0,0,1,949.486,361.393Z" transform="translate(-275.911 -180.45)" fill="#e6e6e6"/>
    <path id="Path_13" data-name="Path 13" d="M920.486,438.393h-31.85a3.927,3.927,0,0,1-3.922-3.922V396.885a3.927,3.927,0,0,1,3.922-3.922h31.85a3.927,3.927,0,0,1,3.922,3.922v37.585A3.927,3.927,0,0,1,920.486,438.393Z" transform="translate(-272.188 -190.333)" fill="#e6e6e6"/>
    <path id="Path_14" data-name="Path 14" d="M796.486,422.393h-31.85a3.927,3.927,0,0,1-3.922-3.922V380.885a3.927,3.927,0,0,1,3.922-3.922h31.85a3.927,3.927,0,0,1,3.922,3.922V418.47A3.927,3.927,0,0,1,796.486,422.393Z" transform="translate(-256.273 -188.28)" fill="#ff6584"/>
    <path id="Path_15" data-name="Path 15" d="M725.486,438.393h-31.85a3.927,3.927,0,0,1-3.922-3.922V396.885a3.927,3.927,0,0,1,3.922-3.922h31.85a3.927,3.927,0,0,1,3.922,3.922v37.585A3.927,3.927,0,0,1,725.486,438.393Z" transform="translate(-247.16 -190.333)" fill="#e6e6e6"/>
    <path id="Path_16" data-name="Path 16" d="M572.486,506.393h-31.85a3.927,3.927,0,0,1-3.922-3.922V464.885a3.927,3.927,0,0,1,3.922-3.922h31.85a3.927,3.927,0,0,1,3.922,3.922V502.47A3.927,3.927,0,0,1,572.486,506.393Z" transform="translate(-227.522 -199.061)" fill="#e6e6e6"/>
    <path id="Path_17" data-name="Path 17" d="M387.486,449.393h-31.85a3.927,3.927,0,0,1-3.922-3.922V407.885a3.927,3.927,0,0,1,3.922-3.922h31.85a3.927,3.927,0,0,1,3.922,3.922v37.585A3.927,3.927,0,0,1,387.486,449.393Z" transform="translate(-203.777 -191.745)" fill="#ff6584"/>
    <path id="Path_18" data-name="Path 18" d="M490.486,370.393h-31.85a3.927,3.927,0,0,1-3.922-3.922V328.885a3.927,3.927,0,0,1,3.922-3.922h31.85a3.927,3.927,0,0,1,3.922,3.922v37.585a3.927,3.927,0,0,1-3.922,3.922Z" transform="translate(-216.997 -181.605)" fill="#e6e6e6"/>
    <path id="Path_19" data-name="Path 19" d="M458.009,256.468H408.325a3.487,3.487,0,0,1,0-6.973h49.684a3.487,3.487,0,1,1,0,6.973Z" transform="translate(-210.595 -171.919)" fill="#ccc"/>
    <path id="Path_20" data-name="Path 20" d="M619.009,256.468H569.325a3.487,3.487,0,1,1,0-6.973h49.684a3.487,3.487,0,1,1,0,6.973Z" transform="translate(-231.26 -171.919)" fill="#ccc"/>
    <path id="Path_21" data-name="Path 21" d="M770.009,256.468H720.325a3.487,3.487,0,0,1,0-6.973h49.684a3.487,3.487,0,0,1,0,6.973Z" transform="translate(-250.641 -171.919)" fill="#ccc"/>
    <path id="Path_22" data-name="Path 22" d="M911.009,256.468H861.325a3.487,3.487,0,0,1,0-6.973h49.684a3.487,3.487,0,0,1,0,6.973Z" transform="translate(-268.739 -171.919)" fill="#ccc"/>
    <path id="Path_23" data-name="Path 23" d="M333.764,545.249a8.765,8.765,0,0,1-7.583-11.1l-22.343-20.8,11.813-3,21.971,17.82a8.813,8.813,0,0,1-3.858,17.072Z" transform="translate(-197.632 -205.401)" fill="#ffb8b8"/>
    <path id="Path_24" data-name="Path 24" d="M184.4,560.183H195.09l5.083-41.218H184.4Z" transform="translate(-17.419 -66.611)" fill="#ffb8b8"/>
    <path id="Path_25" data-name="Path 25" d="M0,0H33.585V12.976H12.976A12.976,12.976,0,0,1,0,0Z" transform="translate(198.277 503.496) rotate(179.997)" fill="#2f2e41"/>
    <path id="Path_26" data-name="Path 26" d="M100.345,551.536l10.327,2.749,15.516-38.523L110.948,511.7Z" transform="translate(-6.63 -65.679)" fill="#ffb8b8"/>
    <path id="Path_27" data-name="Path 27" d="M0,0H33.585V12.976H12.976A12.976,12.976,0,0,1,0,0H0Z" transform="matrix(-0.966, -0.257, 0.257, -0.966, 121.405, 503.498)" fill="#2f2e41"/>
    <path id="Path_28" data-name="Path 28" d="M376.059,689.836H359.752a4.123,4.123,0,0,1-4.119-3.742l-9.9-102.795a3.267,3.267,0,0,0-6.381-.623l-28.741,96.055a4.134,4.134,0,0,1-4.968,2.829l-15.169-3.793a4.138,4.138,0,0,1-3-5.044c.248-.968,24.764-96.777,24.978-97.762,5.555-40.939,12.2-51.91,15.771-57.8.3-.488.567-.936.812-1.36.306-.53,2.19-5.792,3.385-9.208a4.175,4.175,0,0,1,2.123-2.6c15-7.672,32.554-2.361,37.576-.551a4.081,4.081,0,0,1,2.038,1.582c15.066,22.725,7.672,154.71,6.037,180.937a4.141,4.141,0,0,1-4.13,3.873Z" transform="translate(-195.514 -204.067)" fill="#2f2e41"/>
    <circle id="Ellipse_1" data-name="Ellipse 1" cx="21.409" cy="21.409" r="21.409" transform="translate(117.056 182.578)" fill="#ffb8b8"/>
    <path id="Path_29" data-name="Path 29" d="M334.473,501.3l-.154-.149c-.289-.279-28.813-28.224-25.121-54.063,1.579-11.052,10.521-18.114,25.86-20.423a23.652,23.652,0,0,1,26.149,16.667l15.167,51.849Z" transform="translate(-198.277 -194.626)" fill="#ccc"/>
    <path id="Path_30" data-name="Path 30" d="M318.007,523.666l-20.325-20.2a11.45,11.45,0,0,1-3.033-10.8l9.84-40.025a9.026,9.026,0,1,1,17.423,4.7l-10.359,35.211L328.3,510.543Z" transform="translate(-196.411 -197.111)" fill="#ccc"/>
    <path id="Path_31" data-name="Path 31" d="M440.66,454.208a8.765,8.765,0,0,1-12.973,3.512l-27.134,14.064,1.2-11.947,24.055-14.887a8.813,8.813,0,0,1,14.853,9.258Z" transform="translate(-210.045 -196.582)" fill="#ffb8b8"/>
    <path id="Path_32" data-name="Path 32" d="M417.279,461.816l-26.451,11.43a11.165,11.165,0,0,1-10.876-1.167l-33.636-24.1a9.026,9.026,0,1,1,10.839-14.429L386,456.249l22.925-8.869Z" transform="translate(-202.6 -195.297)" fill="#ccc"/>
    <path id="Path_33" data-name="Path 33" d="M337.333,397.473c2.641-3.309,7.575-3.487,11.2-5.67,4.752-2.859,6.717-9.249,5.185-14.579s-6.048-9.484-11.225-11.471-10.939-2.011-16.4-1.051c-8.133,1.43-16.14,5.226-21.1,11.827s-6.222,16.27-1.727,23.2c2.066,3.184,5.255,5.811,6.08,9.516,1.083,4.863-2.328,9.554-5.983,12.94-4.164,3.858-8.94,7.089-12.588,11.439s-6.08,10.291-4.416,15.718c1.395,4.547,5.453,7.9,9.9,9.574s9.3,1.92,14.052,2.013c4.617.09,9.522-.022,13.411-2.512,4.164-2.665,6.387-7.721,6.552-12.662s-1.487-9.782-3.7-14.2a54.611,54.611,0,0,1-3.729-8c-.876-2.813-1.028-6.006.375-8.6,1.475-2.724,4.46-4.366,7.5-4.963.158-.031.325-.059.5-.083a6.449,6.449,0,0,0,5.52-7.52C336.4,400.453,336.43,398.605,337.333,397.473Z" transform="translate(-195.32 -186.627)" fill="#2f2e41"/>
    <path id="Path_34" data-name="Path 34" d="M480.907,561.23H470.22l-5.083-41.218h15.772Z" transform="translate(-53.452 -66.745)" fill="#a0616a"/>
    <path id="Path_35" data-name="Path 35" d="M460.3,563.8H480.91v12.976H447.325A12.976,12.976,0,0,1,460.3,563.8Z" transform="translate(-51.166 -72.365)" fill="#2f2e41"/>
    <path id="Path_36" data-name="Path 36" d="M567.55,547.892l-9.72,4.439-21.751-35.379,14.346-6.553Z" transform="translate(-62.558 -65.511)" fill="#a0616a"/>
    <path id="Path_37" data-name="Path 37" d="M12.976,0H33.585V12.976H0A12.976,12.976,0,0,1,12.976,0Z" transform="translate(475.255 492.608) rotate(-24.548)" fill="#2f2e41"/>
    <path id="Path_38" data-name="Path 38" d="M723.559,562.179a8.765,8.765,0,0,0,.7-13.422l12.562-28.5-15.959,2.7-9.482,26.652a8.813,8.813,0,0,0,12.181,12.568Z" transform="translate(-249.687 -206.671)" fill="#a0616a"/>
    <path id="Path_39" data-name="Path 39" d="M668.709,692.28H658.5a3.937,3.937,0,0,1-3.912-3.638l-5.567-148.667a3.922,3.922,0,0,1,4.293-4.188l59.041,6.27a3.924,3.924,0,0,1,3.541,3.83l1.237,65.579a3.042,3.042,0,0,0,.2,1.04l24.219,62.8a3.921,3.921,0,0,1-2.3,5.091l-10.345,3.812a3.923,3.923,0,0,1-4.844-1.886l-29.752-57.851a3.906,3.906,0,0,1-.352-1l-5.082-24.488a3.051,3.051,0,0,0-6.018.272L672.606,688.8A3.922,3.922,0,0,1,668.709,692.28Z" transform="translate(-241.935 -208.663)" fill="#2f2e41"/>
    <circle id="Ellipse_2" data-name="Ellipse 2" cx="21.409" cy="21.409" r="21.409" transform="translate(410.448 172.252)" fill="#a0616a"/>
    <path id="Path_40" data-name="Path 40" d="M688.238,538.44a76.412,76.412,0,0,1-40.857-12.376l-.208-.144.021-.252,8.189-95.372a13.441,13.441,0,0,1,12.725-12.257c10.613-.488,24.869.127,32.5,5.811,11.532,8.59,17.091,21.524,15.25,35.487-3.818,28.955.507,68.014,1.013,72.372l.037.314-.287.132A67.348,67.348,0,0,1,688.238,538.44Z" transform="translate(-241.699 -193.535)" fill="#6c63ff"/>
    <path id="Path_41" data-name="Path 41" d="M724.788,535.114a4.365,4.365,0,0,1-3.208-1.414l-4.683-5.109a4.381,4.381,0,0,1-.967-4.18l10.678-36.142L710.36,454.15a7.678,7.678,0,0,1,13.693-6.941L746.1,482.983a10.417,10.417,0,0,1,.628,9.761l-17.965,39.8a4.348,4.348,0,0,1-3.283,2.51A4.415,4.415,0,0,1,724.788,535.114Z" transform="translate(-249.714 -196.777)" fill="#6c63ff"/>
    <path id="Path_42" data-name="Path 42" d="M553.37,467.1a8.765,8.765,0,0,0,13.073-3.118l30.889,4.006-7.1-14.546-28.245-1.574A8.813,8.813,0,0,0,553.37,467.1Z" transform="translate(-229.198 -197.806)" fill="#a0616a"/>
    <path id="Path_43" data-name="Path 43" d="M624,470.663a11.708,11.708,0,0,1-1.608-.111l-48.6-6.74A4.83,4.83,0,0,1,570.1,461.1a4.935,4.935,0,0,1-.277-.723h0a4.85,4.85,0,0,1,.5-3.863l4.021-6.667a4.868,4.868,0,0,1,4.145-2.341h.007l42.359.049,31.635-28.343a8.572,8.572,0,0,1,11.75,12.478L632.669,466.8A11.649,11.649,0,0,1,624,470.664Z" transform="translate(-231.746 -193.422)" fill="#6c63ff"/>
    <path id="Path_44" data-name="Path 44" d="M675.749,397.308c1.956-4.528,3.612-10.558-.141-13.759-2.177-1.857-5.312-1.861-8.163-2.092-8.034-.651-16.3-4.347-20.232-11.387s-1.734-17.507,5.675-20.682c4.994-2.141,10.719-.682,15.946.8l15.695,4.451c4.663,1.322,9.56,2.781,12.917,6.277,5.354,5.576,4.954,15,.7,21.458s-10.657,13.189-17.989,15.64Z" transform="translate(-241.458 -184.602)" fill="#2f2e41"/>
  </g>
</svg>
